<?xml version="1.0" encoding="utf-8"?>
<!-- Generator: Adobe Illustrator 19.0.1, SVG Export Plug-In . SVG Version: 6.00 Build 0)  -->
<svg version="1.1"
	 xmlns="http://www.w3.org/2000/svg" xmlns:xlink="http://www.w3.org/1999/xlink" xmlns:a="http://ns.adobe.com/AdobeSVGViewerExtensions/3.0/"
	 x="0px" y="0px" width="24px" height="24px" viewBox="-2 0 24 24" style="overflow:visible;enable-background:new -2 0 24 24;"
	 xml:space="preserve" preserveAspectRatio="xMinYMid meet">
<style type="text/css">
	.st0{fill:#FFFFFF;}
	.st1{fill:#A5B0B0;}
	.st2{fill:#C4CCCB;}
	.st3{fill:#D9F991;}
	.st4{fill:#6B90D5;}
	.st5{fill:#FBC75E;}
	.st6{fill:#EA5B03;}
	.st7{fill:#BBE0F7;}
	.st8{fill:#70A034;}
</style>
<g>
	<g>
		<path class="st0" d="M1,23.9c-0.5,0-0.9-0.4-0.9-0.9V1c0-0.5,0.4-0.9,0.9-0.9h22c0.5,0,0.9,0.4,0.9,0.9v22c0,0.5-0.4,0.9-0.9,0.9
			H1z"/>
		<path class="st1" d="M23,0.3c0.4,0,0.8,0.3,0.8,0.7v22c0,0.4-0.3,0.8-0.8,0.8H1c-0.4,0-0.8-0.3-0.8-0.8V1c0-0.4,0.3-0.7,0.8-0.7
			H23 M23,0H1C0.4,0,0,0.5,0,1v22c0,0.5,0.4,1,1,1h22c0.6,0,1-0.5,1-1V1C24,0.5,23.6,0,23,0L23,0z"/>
	</g>
	<g>
		<path class="st0" d="M1.1,23.8c-0.5,0-0.9-0.4-0.9-0.9V1.1c0-0.5,0.4-0.9,0.9-0.9h21.8c0.5,0,0.9,0.4,0.9,0.9v21.8
			c0,0.5-0.4,0.9-0.9,0.9H1.1z"/>
		<path class="st2" d="M22.9,0.4c0.4,0,0.8,0.3,0.8,0.7v21.8c0,0.4-0.3,0.8-0.8,0.8H1.1c-0.4,0-0.7-0.3-0.7-0.8V1.1
			c0-0.4,0.3-0.7,0.7-0.7H22.9 M22.9,0.1H1.1c-0.6,0-1,0.5-1,1v21.8c0,0.5,0.4,1,1,1h21.8c0.6,0,1-0.5,1-1V1.1
			C23.9,0.6,23.4,0.1,22.9,0.1L22.9,0.1z"/>
	</g>
	<path class="st3" d="M6.5,7.5h-4c-0.6,0-1-0.5-1-1v-4c0-0.6,0.4-1,1-1h4c0.6,0,1,0.5,1,1v4C7.5,7.1,7.1,7.5,6.5,7.5z"/>
	<path class="st4" d="M14,7.5h-4c-0.6,0-1-0.5-1-1v-4c0-0.6,0.4-1,1-1h4c0.6,0,1,0.5,1,1v4C15,7.1,14.6,7.5,14,7.5z"/>
	<path class="st5" d="M21.5,7.5h-4c-0.6,0-1-0.5-1-1v-4c0-0.6,0.4-1,1-1h4c0.5,0,1,0.5,1,1v4C22.5,7.1,22.1,7.5,21.5,7.5z"/>
	<path class="st6" d="M6.5,15h-4c-0.6,0-1-0.4-1-1v-4c0-0.5,0.4-1,1-1h4c0.6,0,1,0.5,1,1v4C7.5,14.6,7.1,15,6.5,15z"/>
	<path class="st7" d="M14,15h-4c-0.6,0-1-0.4-1-1v-4c0-0.5,0.4-1,1-1h4c0.6,0,1,0.5,1,1v4C15,14.6,14.6,15,14,15z"/>
	<path class="st8" d="M21.5,15h-4c-0.6,0-1-0.4-1-1v-4c0-0.5,0.4-1,1-1h4c0.5,0,1,0.5,1,1v4C22.5,14.6,22.1,15,21.5,15z"/>
	<path class="st4" d="M6.5,22.5h-4c-0.6,0-1-0.4-1-1v-4c0-0.5,0.4-1,1-1h4c0.6,0,1,0.5,1,1v4C7.5,22.1,7.1,22.5,6.5,22.5z"/>
	<path class="st6" d="M14,22.5h-4c-0.6,0-1-0.4-1-1v-4c0-0.5,0.4-1,1-1h4c0.6,0,1,0.5,1,1v4C15,22.1,14.6,22.5,14,22.5z"/>
	<path class="st3" d="M21.5,22.5h-4c-0.6,0-1-0.4-1-1v-4c0-0.5,0.4-1,1-1h4c0.5,0,1,0.5,1,1v4C22.5,22.1,22.1,22.5,21.5,22.5z"/>
</g>
</svg>
